<svg width="470" height="116" viewBox="0 0 470 116" fill="none" xmlns="http://www.w3.org/2000/svg">
<path d="M55.3032 66.2169C55.343 65.9321 55.3829 65.6473 55.4227 65.3625C55.1887 65.1728 54.9546 64.9831 54.7206 64.7934C54.6056 65.1808 54.5902 65.6443 54.3609 65.9445C49.0479 72.9014 43.656 79.7989 38.4216 86.8141C37.2111 88.4365 35.9518 89.249 33.7703 88.9326C22.488 88.9819 11.4107 88.9819 0.169904 88.9819C0.169904 80.7583 0.169904 72.8088 0.169904 64.5203C7.94606 64.5203 15.7762 64.5203 23.6063 64.5203C23.6637 64.336 23.7212 64.1516 23.7786 63.9673C21.8204 62.4462 19.8691 60.9161 17.9027 59.4056C12.4722 55.2341 7.00511 51.1088 1.63464 46.8614C0.859339 46.2482 0.0816857 45.0676 0.0729991 44.1424C-0.0326482 32.8905 0.00275066 21.6372 0.0189202 10.3843C0.0194657 10.0048 0.202938 9.62556 0.565228 9.31608C0.981683 9.30458 1.13405 9.22318 1.28642 9.14177C5.60264 9.09583 9.91882 9.01597 14.2351 9.01028C27.4449 8.99287 40.6548 9.00241 53.8646 9.0044C67.2444 9.00641 76.0878 15.7773 79.5839 28.7805C79.6532 48.8349 79.6532 68.7472 79.6532 88.7979C71.7248 88.7979 63.7663 88.7979 55.6153 88.606C55.3832 88.3386 55.3437 88.2632 55.3042 88.1877C55.3577 81.3078 55.4112 74.4279 55.4487 67.2031C55.3895 66.6444 55.3463 66.4306 55.3032 66.2169ZM55.4299 34.0911C54.8486 33.65 54.9037 33.7247 54.1886 33.4495C44.358 33.4495 34.5275 33.4495 24.6421 33.4495C24.6421 43.9378 24.6421 54.0911 24.6421 64.3033C34.9342 64.3033 45.0886 64.3033 55.3144 64.3033C55.3144 54.2147 55.3144 44.2865 55.4299 34.0911Z" fill="#171FE6"/>
<path d="M1.14033 9.09788C1.13407 9.22318 0.981702 9.30459 0.772705 9.2827C0.808791 9.13761 0.901504 9.0958 1.14033 9.09788Z" fill="#171FE6"/>
<path d="M55.1994 66.2568C55.3462 66.4306 55.3893 66.6444 55.3688 67.0124C55.2353 66.8767 55.1655 66.5868 55.1994 66.2568Z" fill="#E3E3E3"/>
<path d="M55.2126 88.2454C55.3436 88.2632 55.3832 88.3386 55.4114 88.5413C55.3072 88.5467 55.2142 88.4249 55.2126 88.2454Z" fill="#E3E3E3"/>
<path d="M140.5 71.5H109.7V11H87.7V88H140.5V71.5ZM182.223 57.2H199.823C199.823 68.75 194.543 73.7 182.223 73.7C169.903 73.7 164.623 66.44 164.623 49.5C164.623 32.56 169.903 25.3 182.223 25.3C192.013 25.3 196.963 28.27 198.723 35.2H219.623C215.883 16.72 204.663 8.8 182.223 8.8C153.733 8.8 141.523 21.01 141.523 49.5C141.523 77.99 153.733 90.2 182.223 90.2C209.173 90.2 220.723 77.99 220.723 49.5V42.9H182.223V57.2ZM268.053 8.8C239.563 8.8 227.353 21.01 227.353 49.5C227.353 77.99 239.563 90.2 268.053 90.2C296.543 90.2 308.753 77.99 308.753 49.5C308.753 21.01 296.543 8.8 268.053 8.8ZM268.053 73.7C255.733 73.7 250.453 66.44 250.453 49.5C250.453 32.56 255.733 25.3 268.053 25.3C280.373 25.3 285.653 32.56 285.653 49.5C285.653 66.44 280.373 73.7 268.053 73.7ZM371.431 61.6C369.781 70.07 365.161 73.7 356.031 73.7C343.711 73.7 338.431 66.44 338.431 49.5C338.431 32.56 343.711 25.3 356.031 25.3C365.161 25.3 369.781 28.93 371.431 37.4H393.431C390.571 17.38 379.351 8.8 356.031 8.8C327.541 8.8 315.331 21.01 315.331 49.5C315.331 77.99 327.541 90.2 356.031 90.2C377.921 90.2 389.141 81.62 393.431 61.6H371.431ZM421.98 30.8C421.98 25.41 425.28 23.1 432.98 23.1C441.45 23.1 445.08 26.07 445.08 33H464.88C464.88 16.06 455.31 8.8 432.98 8.8C410.65 8.8 401.08 16.39 401.08 34.1C401.08 61.6 445.08 52.8 445.08 68.2C445.08 73.59 441.45 75.9 432.98 75.9C423.74 75.9 419.78 72.93 419.78 66H399.98C399.98 82.94 409.88 90.2 432.98 90.2C456.08 90.2 465.98 82.61 465.98 64.9C465.98 35.2 421.98 42.9 421.98 30.8Z" fill="#171FE6"/>
</svg>
