<svg width="57" height="242" viewBox="0 0 57 242" fill="none" xmlns="http://www.w3.org/2000/svg">
<path fill-rule="evenodd" clip-rule="evenodd" d="M28.1289 0C28.9577 0 29.7526 0.32924 30.3387 0.915291C30.9247 1.50134 31.2539 2.2962 31.2539 3.125V230.835L50.9164 211.166C51.5032 210.579 52.2991 210.249 53.1289 210.249C53.9588 210.249 54.7547 210.579 55.3414 211.166C55.9282 211.753 56.2579 212.548 56.2579 213.378C56.2579 214.208 55.9282 215.004 55.3414 215.591L30.3414 240.591C30.0512 240.882 29.7063 241.113 29.3267 241.271C28.947 241.428 28.54 241.509 28.1289 241.509C27.7179 241.509 27.3109 241.428 26.9312 241.271C26.5516 241.113 26.2067 240.882 25.9164 240.591L0.916447 215.591C0.329655 215.004 -1.95519e-08 214.208 0 213.378C1.95519e-08 212.548 0.329655 211.753 0.916447 211.166C1.50324 210.579 2.2991 210.249 3.12895 210.249C3.9588 210.249 4.75466 210.579 5.34145 211.166L25.0039 230.835L25.0039 3.125C25.0039 2.2962 25.3332 1.50134 25.9192 0.915291C26.5053 0.32924 27.3001 0 28.1289 0Z" fill="#4F26E9"/>
</svg>
