<svg width="794" height="539" viewBox="0 0 794 539" fill="none" xmlns="http://www.w3.org/2000/svg">
<path d="M793.9 272.2L641.4 184.2V359.6L793.9 447.6V272.2Z" fill="#171FE6"/>
<path d="M313.5 175.4L161 263.4V87.9999L313.5 -0.00012207V175.4Z" fill="#171FE6"/>
<path d="M481.1 272.3L633.6 184.3V359.6L481.1 447.6V272.3Z" fill="#171FE6"/>
<path d="M473.3 272.7L320.8 184.7V360L473.3 448.1V272.7Z" fill="#171FE6"/>
<path d="M160.6 272.7L313 184.7V360.1L160.6 448.1V272.7Z" fill="#171FE6"/>
<path d="M153.1 450.9L0.700134 538.9V363.5L153.1 275.5V450.9Z" fill="#171FE6"/>
<path d="M473 88L320.6 0V175.3L473 263.3V88Z" fill="#171FE6"/>
<path d="M152.4 88.3999L-0.00012207 0.399902V175.8L152.4 263.8V88.3999Z" fill="#171FE6"/>
</svg>
