<svg width="794" height="539" viewBox="0 0 794 539" fill="none" xmlns="http://www.w3.org/2000/svg">
<path d="M0 272.2L152.5 184.2V359.6L0 447.6V272.2Z" fill="#171FE6"/>
<path d="M480.4 175.4L632.9 263.4V87.9999L480.4 -0.00012207V175.4Z" fill="#171FE6"/>
<path d="M312.8 272.3L160.3 184.3V359.6L312.8 447.6V272.3Z" fill="#171FE6"/>
<path d="M320.6 272.7L473.1 184.7V360L320.6 448.1V272.7Z" fill="#171FE6"/>
<path d="M633.3 272.7L480.9 184.7V360.1L633.3 448.1V272.7Z" fill="#171FE6"/>
<path d="M640.8 450.9L793.2 538.9V363.5L640.8 275.5V450.9Z" fill="#171FE6"/>
<path d="M320.9 88.0001L473.3 0.00012207V175.3L320.9 263.3V88.0001Z" fill="#171FE6"/>
<path d="M641.5 88.4L793.9 0.400024V175.8L641.5 263.8V88.4Z" fill="#171FE6"/>
</svg>
